<?xml version="1.0" encoding="iso-8859-1"?>
<!-- Generator: Adobe Illustrator 19.0.0, SVG Export Plug-In . SVG Version: 6.00 Build 0)  -->
<svg version="1.1" id="Capa_1" xmlns="http://www.w3.org/2000/svg" xmlns:xlink="http://www.w3.org/1999/xlink" x="0px" y="0px"
	 viewBox="0 0 512 512" style="enable-background:new 0 0 512 512;" xml:space="preserve">
<polygon style="fill:#FF9577;" points="240.128,334.888 240.128,334.888 240.127,334.888 226.558,328.502 225.762,330.194 
	139.984,302.162 139.984,302.163 126.415,295.777 51.619,454.712 125.511,455.679 173.351,512 253.696,341.273 "/>
<polygon style="fill:#FF633E;" points="386.263,295.824 372.673,302.163 372.673,302.162 286.335,330.217 285.528,328.502 
	271.959,334.888 271.958,334.888 271.958,334.888 258.39,341.273 338.735,512 386.575,455.679 460.381,454.713 "/>
<path style="fill:#FFB74F;" d="M435.126,179.083c0,98.744-80.339,179.083-179.083,179.083S76.961,277.827,76.961,179.083
	S157.3,0,256.043,0S435.126,80.339,435.126,179.083z"/>
<path style="fill:#FF9A00;" d="M435.126,179.083c0,98.744-80.339,179.083-179.083,179.083V0
	C354.787,0,435.126,80.339,435.126,179.083z"/>
<polygon style="fill:#FFEC97;" points="314.428,199.567 328.214,279.936 256.043,241.996 183.873,279.936 197.659,199.567 
	139.274,142.662 219.963,130.935 256.043,57.815 292.124,130.935 372.813,142.662 "/>
<polygon style="fill:#FFDF48;" points="314.428,199.567 328.214,279.936 256.043,241.996 256.043,57.815 292.124,130.935 
	372.813,142.662 "/>
<g>
</g>
<g>
</g>
<g>
</g>
<g>
</g>
<g>
</g>
<g>
</g>
<g>
</g>
<g>
</g>
<g>
</g>
<g>
</g>
<g>
</g>
<g>
</g>
<g>
</g>
<g>
</g>
<g>
</g>
</svg>
