<svg id="Capa_1" enable-background="new 0 0 512 512" height="512" viewBox="0 0 512 512" width="512" xmlns="http://www.w3.org/2000/svg" xmlns:xlink="http://www.w3.org/1999/xlink"><linearGradient id="SVGID_1_" gradientUnits="userSpaceOnUse" x1="256" x2="256" y1="512" y2="0"><stop offset="0" stop-color="#fd5900"/><stop offset="1" stop-color="#ffde00"/></linearGradient><g><g><path d="m257.2 151c24.813 0 45-20.187 45-45s-20.187-45-45-45-45 20.187-45 45 20.187 45 45 45zm0-60c8.271 0 15 6.729 15 15s-6.729 15-15 15-15-6.729-15-15 6.729-15 15-15zm73.8 204.354-8.896-2.891c-7.883-2.561-16.342 1.752-18.901 9.63-2.561 7.879 1.752 16.341 9.63 18.901l8.897 2.891-5.498 7.568c-4.87 6.702-3.384 16.083 3.318 20.952 6.671 4.848 16.061 3.413 20.951-3.318l5.499-7.569 5.499 7.569c4.883 6.723 14.269 8.173 20.951 3.318 6.702-4.87 8.188-14.25 3.318-20.952l-5.498-7.568 8.897-2.891c7.878-2.56 12.19-11.022 9.63-18.901s-11.022-12.192-18.901-9.63l-8.896 2.891v-9.354c0-8.284-6.716-15-15-15s-15 6.716-15 15zm105-295.354h-360c-8.284 0-15 6.716-15 15v482c0 8.284 6.716 15 15 15h360c8.284 0 15-6.716 15-15v-482c0-8.284-6.716-15-15-15zm-15 482h-330v-452h330zm-288.167-161.005 8.897 2.891-5.498 7.568c-4.87 6.702-3.384 16.083 3.318 20.952 6.671 4.848 16.061 3.413 20.951-3.318l5.499-7.569 5.499 7.569c4.883 6.723 14.269 8.173 20.951 3.318 6.702-4.87 8.188-14.25 3.318-20.952l-5.498-7.568 8.897-2.891c7.878-2.56 12.19-11.022 9.63-18.901s-11.023-12.192-18.901-9.63l-8.896 2.89v-9.354c0-8.284-6.716-15-15-15s-15 6.716-15 15v9.354l-8.896-2.891c-7.884-2.561-16.341 1.752-18.901 9.63-2.56 7.88 1.752 16.342 9.63 18.902zm63.167-79.995h120c8.284 0 15-6.716 15-15 0-41.355-33.645-75-75-75s-75 33.645-75 75c0 8.284 6.716 15 15 15zm60-60c19.557 0 36.239 12.539 42.43 30h-84.86c6.191-17.461 22.873-30 42.43-30zm-120 240h240c8.284 0 15-6.716 15-15s-6.716-15-15-15h-240c-8.284 0-15 6.716-15 15s6.716 15 15 15zm162.797-118.906c-2.56-7.879-11.022-12.192-18.901-9.63l-8.896 2.89v-9.354c0-8.284-6.716-15-15-15s-15 6.716-15 15v9.354l-8.896-2.891c-7.885-2.561-16.341 1.752-18.901 9.63-2.561 7.879 1.752 16.341 9.63 18.901l8.897 2.891-5.498 7.568c-4.87 6.702-3.384 16.083 3.318 20.952 6.671 4.848 16.061 3.413 20.951-3.318l5.499-7.569 5.499 7.569c4.883 6.723 14.269 8.173 20.951 3.318 6.702-4.87 8.188-14.25 3.318-20.952l-5.498-7.568 8.897-2.891c7.878-2.559 12.19-11.021 9.63-18.9z" fill="url(#SVGID_1_)"/></g></g></svg>