<svg height="479.99658pt" viewBox="0 0 479.99658 479.99658" width="479.99658pt" xmlns="http://www.w3.org/2000/svg" xmlns:xlink="http://www.w3.org/1999/xlink"><linearGradient id="a"><stop offset="0" stop-color="#fff33b"/><stop offset=".014" stop-color="#fee72e"/><stop offset=".042" stop-color="#fed51b"/><stop offset=".07" stop-color="#fdca10"/><stop offset=".1" stop-color="#fdc70c"/><stop offset=".4" stop-color="#f3903f"/><stop offset=".8" stop-color="#ed683c"/><stop offset="1" stop-color="#e93e3a"/></linearGradient><linearGradient id="b" gradientUnits="userSpaceOnUse" x1="239.998292" x2="239.998292" xlink:href="#a" y1="-32.209708" y2="479.070292"/><linearGradient id="c" gradientUnits="userSpaceOnUse" x1="239.998292" x2="239.998292" xlink:href="#a" y1="-31.953708" y2="478.846292"/><linearGradient id="d" gradientUnits="userSpaceOnUse" x1="239.998292" x2="239.998292" xlink:href="#a" y1="-32.225708" y2="479.078292"/><path d="m240 88c-83.949219 0-152 68.050781-152 152 0 83.945312 68.050781 152 152 152 83.945312 0 152-68.054688 152-152-.09375-83.910156-68.09375-151.910156-152-152zm0 288c-75.113281 0-136-60.890625-136-136 0-75.113281 60.886719-136 136-136 75.109375 0 136 60.886719 136 136-.085938 75.074219-60.925781 135.914062-136 136zm0 0" fill="url(#b)"/><path d="m240 112c-70.695312 0-128 57.304688-128 128 0 70.691406 57.304688 128 128 128 70.691406 0 128-57.308594 128-128-.085938-70.660156-57.34375-127.917969-128-128zm0 240c-61.859375 0-112-50.144531-112-112 0-61.859375 50.140625-112 112-112 61.855469 0 112 50.140625 112 112-.066406 61.828125-50.171875 111.933594-112 112zm0 0" fill="url(#b)"/><path d="m240 184c13.253906 0 24 10.742188 24 24h16c-.027344-19.003906-13.390625-35.375-32-39.203125v-16.796875h-16v16.796875c-20.140625 4.089844-33.90625 22.773437-31.839844 43.222656 2.066406 20.445313 19.289063 36 39.839844 35.980469 13.253906 0 24 10.742188 24 24 0 13.253906-10.746094 24-24 24-13.257812 0-24-10.746094-24-24h-16c.023438 19 13.386719 35.371094 32 39.199219v16.800781h16v-16.800781c20.136719-4.089844 33.902344-22.773438 31.835938-43.222657-2.066407-20.445312-19.289063-36-39.835938-35.976562-13.257812 0-24-10.746094-24-24 0-13.257812 10.742188-24 24-24zm0 0" fill="url(#c)"/><path d="m477.652344 234.34375-61.652344-61.65625v-100.6875c0-4.421875-3.582031-8-8-8h-100.691406l-61.65625-61.65625c-3.121094-3.125-8.1875-3.125-11.308594 0l-61.65625 61.65625h-100.6875c-4.421875 0-8 3.578125-8 8v100.6875l-61.65625 61.65625c-3.125 3.121094-3.125 8.1875 0 11.308594l61.65625 61.65625v100.691406c0 4.417969 3.578125 8 8 8h100.6875l61.65625 61.652344c3.121094 3.125 8.1875 3.125 11.308594 0l61.65625-61.652344h100.691406c4.417969 0 8-3.582031 8-8v-100.691406l61.652344-61.65625c3.125-3.121094 3.125-8.1875 0-11.308594zm-75.308594 64c-1.5 1.5-2.34375 3.53125-2.34375 5.65625v96h-96c-2.125 0-4.15625.84375-5.65625 2.34375l-58.34375 58.34375-58.347656-58.34375c-1.496094-1.5-3.53125-2.34375-5.652344-2.34375h-96v-96c-.003906-2.125-.84375-4.15625-2.347656-5.65625l-58.34375-58.34375 58.34375-58.347656c1.503906-1.496094 2.34375-3.53125 2.347656-5.652344v-96h96c2.121094-.003906 4.15625-.84375 5.652344-2.347656l58.347656-58.34375 58.34375 58.34375c1.5 1.503906 3.53125 2.34375 5.65625 2.347656h96v96c0 2.121094.84375 4.15625 2.34375 5.652344l58.34375 58.347656zm0 0" fill="url(#d)"/></svg>