<svg height="512" viewBox="0 0 64 64" width="512" xmlns="http://www.w3.org/2000/svg" xmlns:xlink="http://www.w3.org/1999/xlink"><linearGradient id="New_Gradient_Swatch_1" gradientUnits="userSpaceOnUse" x1="3" x2="3" y1="-.341" y2="65.881"><stop offset="0" stop-color="#fff33b"/><stop offset=".014" stop-color="#fee72e"/><stop offset=".042" stop-color="#fed51b"/><stop offset=".07" stop-color="#fdca10"/><stop offset=".1" stop-color="#fdc70c"/><stop offset=".4" stop-color="#f3903f"/><stop offset=".8" stop-color="#ed683c"/><stop offset="1" stop-color="#e93e3a"/></linearGradient><linearGradient id="New_Gradient_Swatch_1-2" x1="5" x2="5" xlink:href="#New_Gradient_Swatch_1" y1="-.341" y2="65.881"/><linearGradient id="New_Gradient_Swatch_1-3" x1="7" x2="7" xlink:href="#New_Gradient_Swatch_1" y1="-.341" y2="65.881"/><linearGradient id="New_Gradient_Swatch_1-9" x1="57" x2="57" xlink:href="#New_Gradient_Swatch_1" y1="-.341" y2="65.881"/><linearGradient id="New_Gradient_Swatch_1-10" x1="59" x2="59" xlink:href="#New_Gradient_Swatch_1" y1="-.341" y2="65.881"/><linearGradient id="New_Gradient_Swatch_1-11" x1="61" x2="61" xlink:href="#New_Gradient_Swatch_1" y1="-.341" y2="65.881"/><linearGradient id="New_Gradient_Swatch_1-13" x1="47" x2="47" xlink:href="#New_Gradient_Swatch_1" y1="-.341" y2="65.881"/><linearGradient id="New_Gradient_Swatch_1-14" x1="49" x2="49" xlink:href="#New_Gradient_Swatch_1" y1="-.341" y2="65.881"/><linearGradient id="New_Gradient_Swatch_1-15" x1="51" x2="51" xlink:href="#New_Gradient_Swatch_1" y1="-.341" y2="65.881"/><linearGradient id="New_Gradient_Swatch_1-17" x1="37" x2="37" xlink:href="#New_Gradient_Swatch_1" y1="-.341" y2="65.881"/><linearGradient id="New_Gradient_Swatch_1-18" x1="39" x2="39" xlink:href="#New_Gradient_Swatch_1" y1="-.341" y2="65.881"/><linearGradient id="New_Gradient_Swatch_1-19" x1="41" x2="41" xlink:href="#New_Gradient_Swatch_1" y1="-.341" y2="65.881"/><linearGradient id="New_Gradient_Swatch_1-21" x1="52" x2="52" xlink:href="#New_Gradient_Swatch_1" y1="-.341" y2="65.881"/><linearGradient id="New_Gradient_Swatch_1-22" x1="54" x2="54" xlink:href="#New_Gradient_Swatch_1" y1="-.341" y2="65.881"/><linearGradient id="New_Gradient_Swatch_1-23" x1="56" x2="56" xlink:href="#New_Gradient_Swatch_1" y1="-.341" y2="65.881"/><linearGradient id="New_Gradient_Swatch_1-29" x1="42" x2="42" xlink:href="#New_Gradient_Swatch_1" y1="-.341" y2="65.881"/><linearGradient id="New_Gradient_Swatch_1-30" x1="44" x2="44" xlink:href="#New_Gradient_Swatch_1" y1="-.341" y2="65.881"/><linearGradient id="New_Gradient_Swatch_1-31" x1="46" x2="46" xlink:href="#New_Gradient_Swatch_1" y1="-.341" y2="65.881"/><linearGradient id="New_Gradient_Swatch_1-33" x1="21.5" x2="21.5" xlink:href="#New_Gradient_Swatch_1" y1="-.341" y2="65.881"/><linearGradient id="New_Gradient_Swatch_1-34" x1="32" x2="32" xlink:href="#New_Gradient_Swatch_1" y1="-.341" y2="65.881"/><linearGradient id="New_Gradient_Swatch_1-35" x1="40" x2="40" xlink:href="#New_Gradient_Swatch_1" y1="-.341" y2="65.881"/><linearGradient id="New_Gradient_Swatch_1-37" gradientTransform="matrix(.866 .5 -.5 .866 23.867 -18.53)" x1="46.5" x2="46.5" xlink:href="#New_Gradient_Swatch_1" y1="-.341" y2="65.881"/><linearGradient id="New_Gradient_Swatch_1-38" gradientTransform="matrix(.5 .866 -.866 .5 52.048 -29.141)" x1="51.258" x2="51.258" xlink:href="#New_Gradient_Swatch_1" y1="-.341" y2="65.881"/><linearGradient id="New_Gradient_Swatch_1-39" x1="53" x2="53" xlink:href="#New_Gradient_Swatch_1" y1="-.341" y2="65.881"/><linearGradient id="New_Gradient_Swatch_1-40" gradientTransform="matrix(.866 .5 -.5 .866 15.614 -23.281)" x1="51.258" x2="51.258" xlink:href="#New_Gradient_Swatch_1" y1="-.341" y2="65.881"/><linearGradient id="New_Gradient_Swatch_1-41" gradientTransform="matrix(.5 .866 -.866 .5 34.278 -33.897)" x1="46.5" x2="46.5" xlink:href="#New_Gradient_Swatch_1" y1="-.341" y2="65.881"/><linearGradient id="New_Gradient_Swatch_1-42" x1="41.5" x2="41.5" xlink:href="#New_Gradient_Swatch_1" y1="-.341" y2="65.881"/><linearGradient id="New_Gradient_Swatch_1-43" x1="19" x2="19" xlink:href="#New_Gradient_Swatch_1" y1="-.341" y2="65.881"/><linearGradient id="New_Gradient_Swatch_1-44" gradientTransform="matrix(.866 .5 -.5 .866 9.044 -4.543)" x1="13" x2="13" xlink:href="#New_Gradient_Swatch_1" y1="-.341" y2="65.881"/><linearGradient id="New_Gradient_Swatch_1-45" gradientTransform="matrix(.5 .866 -.866 .5 20.758 2.045)" x1="8.608" x2="8.608" xlink:href="#New_Gradient_Swatch_1" y1="-.341" y2="65.881"/><linearGradient id="New_Gradient_Swatch_1-47" gradientTransform="matrix(.866 .5 -.5 .866 16.65 -.151)" x1="8.608" x2="8.608" xlink:href="#New_Gradient_Swatch_1" y1="-.341" y2="65.881"/><linearGradient id="New_Gradient_Swatch_1-48" gradientTransform="matrix(.5 .866 -.866 .5 37.154 6.44)" x1="13" x2="13" xlink:href="#New_Gradient_Swatch_1" y1="-.341" y2="65.881"/><linearGradient id="New_Gradient_Swatch_1-50" gradientTransform="matrix(.866 .5 -.5 .866 21.042 -7.758)" x1="25" x2="25" xlink:href="#New_Gradient_Swatch_1" y1="-.341" y2="65.881"/><linearGradient id="New_Gradient_Swatch_1-51" gradientTransform="matrix(.5 .866 -.866 .5 41.542 -9.955)" x1="29.392" x2="29.392" xlink:href="#New_Gradient_Swatch_1" y1="-.341" y2="65.881"/><linearGradient id="New_Gradient_Swatch_1-52" x1="31" x2="31" xlink:href="#New_Gradient_Swatch_1" y1="-.341" y2="65.881"/><linearGradient id="New_Gradient_Swatch_1-53" gradientTransform="matrix(.866 .5 -.5 .866 13.435 -12.149)" x1="29.392" x2="29.392" xlink:href="#New_Gradient_Swatch_1" y1="-.341" y2="65.881"/><linearGradient id="New_Gradient_Swatch_1-54" gradientTransform="matrix(.5 .866 -.866 .5 25.153 -14.347)" x1="25" x2="25" xlink:href="#New_Gradient_Swatch_1" y1="-.341" y2="65.881"/><g id="Idea-2" data-name="Idea"><path d="m2 4h2v2h-2z" fill="url(#New_Gradient_Swatch_1)"/><path d="m4 6h2v2h-2z" fill="url(#New_Gradient_Swatch_1-2)"/><path d="m6 4h2v2h-2z" fill="url(#New_Gradient_Swatch_1-3)"/><path d="m4 2h2v2h-2z" fill="url(#New_Gradient_Swatch_1-2)"/><path d="m2 58h2v2h-2z" fill="url(#New_Gradient_Swatch_1)"/><path d="m4 60h2v2h-2z" fill="url(#New_Gradient_Swatch_1-2)"/><path d="m6 58h2v2h-2z" fill="url(#New_Gradient_Swatch_1-3)"/><path d="m4 56h2v2h-2z" fill="url(#New_Gradient_Swatch_1-2)"/><path d="m56 58h2v2h-2z" fill="url(#New_Gradient_Swatch_1-9)"/><path d="m58 60h2v2h-2z" fill="url(#New_Gradient_Swatch_1-10)"/><path d="m60 58h2v2h-2z" fill="url(#New_Gradient_Swatch_1-11)"/><path d="m58 56h2v2h-2z" fill="url(#New_Gradient_Swatch_1-10)"/><path d="m46 56h2v2h-2z" fill="url(#New_Gradient_Swatch_1-13)"/><path d="m48 58h2v2h-2z" fill="url(#New_Gradient_Swatch_1-14)"/><path d="m50 56h2v2h-2z" fill="url(#New_Gradient_Swatch_1-15)"/><path d="m48 54h2v2h-2z" fill="url(#New_Gradient_Swatch_1-14)"/><path d="m36 58h2v2h-2z" fill="url(#New_Gradient_Swatch_1-17)"/><path d="m38 60h2v2h-2z" fill="url(#New_Gradient_Swatch_1-18)"/><path d="m40 58h2v2h-2z" fill="url(#New_Gradient_Swatch_1-19)"/><path d="m38 56h2v2h-2z" fill="url(#New_Gradient_Swatch_1-18)"/><path d="m51 50h2v2h-2z" fill="url(#New_Gradient_Swatch_1-21)"/><path d="m53 52h2v2h-2z" fill="url(#New_Gradient_Swatch_1-22)"/><path d="m55 50h2v2h-2z" fill="url(#New_Gradient_Swatch_1-23)"/><path d="m53 48h2v2h-2z" fill="url(#New_Gradient_Swatch_1-22)"/><path d="m56 4h2v2h-2z" fill="url(#New_Gradient_Swatch_1-9)"/><path d="m58 6h2v2h-2z" fill="url(#New_Gradient_Swatch_1-10)"/><path d="m60 4h2v2h-2z" fill="url(#New_Gradient_Swatch_1-11)"/><path d="m58 2h2v2h-2z" fill="url(#New_Gradient_Swatch_1-10)"/><path d="m41 50h2v2h-2z" fill="url(#New_Gradient_Swatch_1-29)"/><path d="m43 52h2v2h-2z" fill="url(#New_Gradient_Swatch_1-30)"/><path d="m45 50h2v2h-2z" fill="url(#New_Gradient_Swatch_1-31)"/><path d="m43 48h2v2h-2z" fill="url(#New_Gradient_Swatch_1-30)"/><path d="m19 27h6v-2h-5v-9h-2v10a1 1 0 0 0 1 1z" fill="url(#New_Gradient_Swatch_1-33)"/><path d="m40 2a22.032 22.032 0 0 0 -15.885 6.789 17 17 0 0 0 -12.115 31.701v5.694a2.972 2.972 0 0 0 -1.22 4.816 2.971 2.971 0 0 0 1.274 4.833 7 7 0 0 0 13.892 0 2.971 2.971 0 0 0 1.274-4.833 2.972 2.972 0 0 0 -1.22-4.816v-5.245a21.99 21.99 0 1 0 14-38.939zm-36 23a15 15 0 1 1 20.625 13.9 1 1 0 0 0 -.625.93v6.17h-10v-6.17a1 1 0 0 0 -.625-.928 14.924 14.924 0 0 1 -9.375-13.902zm25.694-13.2a15.813 15.813 0 0 1 10.306-3.8 16 16 0 1 1 -9.088 29.14 16.994 16.994 0 0 0 -1.218-25.34zm-16.694 36.2h12a1 1 0 0 1 0 2h-12a1 1 0 0 1 0-2zm6 12a5.009 5.009 0 0 1 -4.9-4h9.8a5.009 5.009 0 0 1 -4.9 4zm6-6h-12a1 1 0 0 1 0-2h12a1 1 0 0 1 0 2zm15-10a19.934 19.934 0 0 1 -12.412-4.339 16.9 16.9 0 0 0 1.775-1.183 18 18 0 1 0 -1.341-27.86 17.171 17.171 0 0 0 -1.867-1.018 19.99 19.99 0 1 1 13.845 34.4z" fill="url(#New_Gradient_Swatch_1-34)"/><path d="m39 10h2v2h-2z" fill="url(#New_Gradient_Swatch_1-35)"/><path d="m39 36h2v2h-2z" fill="url(#New_Gradient_Swatch_1-35)"/><path d="m45.5 34.259h1.999v1.999h-1.999z" fill="url(#New_Gradient_Swatch_1-37)" transform="matrix(.866 -.5 .5 .866 -11.4 27.982)"/><path d="m50.258 29.5h2v2h-2z" fill="url(#New_Gradient_Swatch_1-38)" transform="matrix(.5 -.866 .866 .5 -.782 59.646)"/><path d="m52 23h2v2h-2z" fill="url(#New_Gradient_Swatch_1-39)"/><path d="m50.258 16.5h2v2h-2z" fill="url(#New_Gradient_Swatch_1-40)" transform="matrix(.866 -.5 .5 .866 -1.884 27.969)"/><path d="m45.5 11.742h1.999v1.999h-1.999z" fill="url(#New_Gradient_Swatch_1-41)" transform="matrix(.5 -.866 .866 .5 12.21 46.636)"/><path d="m40 27a3 3 0 0 0 2.816-2h3.184v-2h-3.184a3 3 0 0 0 -1.816-1.816v-7.184h-2v7.184a2.993 2.993 0 0 0 1 5.816zm0-4a1 1 0 1 1 -1 1 1 1 0 0 1 1-1z" fill="url(#New_Gradient_Swatch_1-42)"/><path d="m18 12h2v2h-2z" fill="url(#New_Gradient_Swatch_1-43)"/><path d="m12 13.607h2v2h-2z" fill="url(#New_Gradient_Swatch_1-44)" transform="matrix(.866 -.5 .5 .866 -5.561 8.455)"/><path d="m7.608 18h2v2h-2z" fill="url(#New_Gradient_Swatch_1-45)" transform="matrix(.5 -.866 .866 .5 -12.151 16.954)"/><path d="m6 24h2v2h-2z" fill="url(#New_Gradient_Swatch_1-3)"/><path d="m7.608 30h2v2h-2z" fill="url(#New_Gradient_Swatch_1-47)" transform="matrix(.866 -.5 .5 .866 -14.345 8.455)"/><path d="m12 34.392h2v2h-2z" fill="url(#New_Gradient_Swatch_1-48)" transform="matrix(.5 -.866 .866 .5 -24.151 28.958)"/><path d="m18 36h2v2h-2z" fill="url(#New_Gradient_Swatch_1-43)"/><path d="m24 34.392h2v2h-2z" fill="url(#New_Gradient_Swatch_1-50)" transform="matrix(.866 -.5 .5 .866 -14.345 17.238)"/><path d="m28.392 30h2v2h-2z" fill="url(#New_Gradient_Swatch_1-51)" transform="matrix(.5 -.866 .866 .5 -12.151 40.953)"/><path d="m30 24h2v2h-2z" fill="url(#New_Gradient_Swatch_1-52)"/><path d="m28.392 18h2v2h-2z" fill="url(#New_Gradient_Swatch_1-53)" transform="matrix(.866 -.5 .5 .866 -5.562 17.238)"/><path d="m24 13.607h2v2h-2z" fill="url(#New_Gradient_Swatch_1-54)" transform="matrix(.5 -.866 .866 .5 -.149 28.957)"/></g></svg>